<mxfile host="app.diagrams.net" modified="2024-01-11T01:37:23.334Z" agent="Mozilla/5.0 (Windows NT 10.0; Win64; x64) AppleWebKit/537.36 (KHTML, like Gecko) Chrome/120.0.0.0 Safari/537.36" etag="phtJgGawMRHKge9hb1Da" version="22.1.18" type="device">
  <diagram name="Page-1" id="DR5RzbN8F8sbzmFkyFLN">
    <mxGraphModel dx="1434" dy="738" grid="1" gridSize="10" guides="1" tooltips="1" connect="1" arrows="1" fold="1" page="1" pageScale="1" pageWidth="827" pageHeight="1169" math="0" shadow="0">
      <root>
        <mxCell id="0" />
        <mxCell id="1" parent="0" />
        <mxCell id="k6DloEgijxmJY-Fi2cft-1" value="PDF FILES" style="rounded=1;whiteSpace=wrap;html=1;" vertex="1" parent="1">
          <mxGeometry x="354" y="20" width="120" height="60" as="geometry" />
        </mxCell>
        <mxCell id="k6DloEgijxmJY-Fi2cft-3" value="" style="endArrow=classic;html=1;rounded=0;exitX=0.45;exitY=1.017;exitDx=0;exitDy=0;exitPerimeter=0;" edge="1" parent="1" source="k6DloEgijxmJY-Fi2cft-1">
          <mxGeometry width="50" height="50" relative="1" as="geometry">
            <mxPoint x="340" y="140" as="sourcePoint" />
            <mxPoint x="408" y="160" as="targetPoint" />
          </mxGeometry>
        </mxCell>
        <mxCell id="k6DloEgijxmJY-Fi2cft-4" value="EXTRACT DATA CONTENT" style="rounded=1;whiteSpace=wrap;html=1;" vertex="1" parent="1">
          <mxGeometry x="350" y="160" width="120" height="60" as="geometry" />
        </mxCell>
        <mxCell id="k6DloEgijxmJY-Fi2cft-5" value="" style="endArrow=classic;html=1;rounded=0;entryX=0.408;entryY=-0.033;entryDx=0;entryDy=0;entryPerimeter=0;" edge="1" parent="1" target="k6DloEgijxmJY-Fi2cft-6">
          <mxGeometry width="50" height="50" relative="1" as="geometry">
            <mxPoint x="410" y="230" as="sourcePoint" />
            <mxPoint x="410" y="330" as="targetPoint" />
          </mxGeometry>
        </mxCell>
        <mxCell id="k6DloEgijxmJY-Fi2cft-6" value="TEST CHUNK 1" style="rounded=1;whiteSpace=wrap;html=1;" vertex="1" parent="1">
          <mxGeometry x="40" y="360" width="120" height="60" as="geometry" />
        </mxCell>
        <mxCell id="k6DloEgijxmJY-Fi2cft-7" value="TEST CHUNK 2" style="rounded=1;whiteSpace=wrap;html=1;" vertex="1" parent="1">
          <mxGeometry x="240" y="360" width="120" height="60" as="geometry" />
        </mxCell>
        <mxCell id="k6DloEgijxmJY-Fi2cft-8" value="TEST CHUNK 3" style="rounded=1;whiteSpace=wrap;html=1;" vertex="1" parent="1">
          <mxGeometry x="440" y="360" width="120" height="60" as="geometry" />
        </mxCell>
        <mxCell id="k6DloEgijxmJY-Fi2cft-9" value="TEST CHUNK 10" style="rounded=1;whiteSpace=wrap;html=1;" vertex="1" parent="1">
          <mxGeometry x="640" y="360" width="120" height="60" as="geometry" />
        </mxCell>
        <mxCell id="k6DloEgijxmJY-Fi2cft-10" value="" style="endArrow=none;dashed=1;html=1;dashPattern=1 3;strokeWidth=2;rounded=0;entryX=0;entryY=0.5;entryDx=0;entryDy=0;" edge="1" parent="1" target="k6DloEgijxmJY-Fi2cft-9">
          <mxGeometry width="50" height="50" relative="1" as="geometry">
            <mxPoint x="560" y="390" as="sourcePoint" />
            <mxPoint x="610" y="340" as="targetPoint" />
          </mxGeometry>
        </mxCell>
        <mxCell id="k6DloEgijxmJY-Fi2cft-11" value="" style="endArrow=classic;html=1;rounded=0;entryX=0.442;entryY=-0.05;entryDx=0;entryDy=0;entryPerimeter=0;" edge="1" parent="1" target="k6DloEgijxmJY-Fi2cft-7">
          <mxGeometry width="50" height="50" relative="1" as="geometry">
            <mxPoint x="410" y="230" as="sourcePoint" />
            <mxPoint x="420" y="310" as="targetPoint" />
          </mxGeometry>
        </mxCell>
        <mxCell id="k6DloEgijxmJY-Fi2cft-12" value="" style="endArrow=classic;html=1;rounded=0;" edge="1" parent="1" target="k6DloEgijxmJY-Fi2cft-8">
          <mxGeometry width="50" height="50" relative="1" as="geometry">
            <mxPoint x="410" y="230" as="sourcePoint" />
            <mxPoint x="440" y="360" as="targetPoint" />
          </mxGeometry>
        </mxCell>
        <mxCell id="k6DloEgijxmJY-Fi2cft-13" value="" style="endArrow=classic;html=1;rounded=0;entryX=0.392;entryY=-0.05;entryDx=0;entryDy=0;entryPerimeter=0;" edge="1" parent="1" target="k6DloEgijxmJY-Fi2cft-9">
          <mxGeometry width="50" height="50" relative="1" as="geometry">
            <mxPoint x="410" y="230" as="sourcePoint" />
            <mxPoint x="440" y="360" as="targetPoint" />
          </mxGeometry>
        </mxCell>
        <mxCell id="k6DloEgijxmJY-Fi2cft-14" value="EMBEDDING 2" style="rounded=1;whiteSpace=wrap;html=1;" vertex="1" parent="1">
          <mxGeometry x="240" y="480" width="120" height="60" as="geometry" />
        </mxCell>
        <mxCell id="k6DloEgijxmJY-Fi2cft-15" value="EMBEDDING 1" style="rounded=1;whiteSpace=wrap;html=1;" vertex="1" parent="1">
          <mxGeometry x="40" y="480" width="120" height="60" as="geometry" />
        </mxCell>
        <mxCell id="k6DloEgijxmJY-Fi2cft-16" value="EMBEDDING 3" style="rounded=1;whiteSpace=wrap;html=1;" vertex="1" parent="1">
          <mxGeometry x="440" y="480" width="120" height="60" as="geometry" />
        </mxCell>
        <mxCell id="k6DloEgijxmJY-Fi2cft-17" value="EMBEDDING 10" style="rounded=1;whiteSpace=wrap;html=1;" vertex="1" parent="1">
          <mxGeometry x="640" y="480" width="120" height="60" as="geometry" />
        </mxCell>
        <mxCell id="k6DloEgijxmJY-Fi2cft-18" value="" style="endArrow=none;dashed=1;html=1;dashPattern=1 3;strokeWidth=2;rounded=0;entryX=0;entryY=0.5;entryDx=0;entryDy=0;" edge="1" parent="1">
          <mxGeometry width="50" height="50" relative="1" as="geometry">
            <mxPoint x="560" y="509.5" as="sourcePoint" />
            <mxPoint x="640" y="509.5" as="targetPoint" />
            <Array as="points">
              <mxPoint x="600" y="509.5" />
            </Array>
          </mxGeometry>
        </mxCell>
        <mxCell id="k6DloEgijxmJY-Fi2cft-19" value="" style="endArrow=classic;html=1;rounded=0;exitX=0.25;exitY=1;exitDx=0;exitDy=0;entryX=0.25;entryY=0;entryDx=0;entryDy=0;" edge="1" parent="1">
          <mxGeometry width="50" height="50" relative="1" as="geometry">
            <mxPoint x="99.5" y="420" as="sourcePoint" />
            <mxPoint x="99.5" y="480" as="targetPoint" />
          </mxGeometry>
        </mxCell>
        <mxCell id="k6DloEgijxmJY-Fi2cft-20" value="" style="endArrow=classic;html=1;rounded=0;exitX=0.25;exitY=1;exitDx=0;exitDy=0;entryX=0.25;entryY=0;entryDx=0;entryDy=0;" edge="1" parent="1">
          <mxGeometry width="50" height="50" relative="1" as="geometry">
            <mxPoint x="299.5" y="420" as="sourcePoint" />
            <mxPoint x="299.5" y="480" as="targetPoint" />
          </mxGeometry>
        </mxCell>
        <mxCell id="k6DloEgijxmJY-Fi2cft-21" value="" style="endArrow=classic;html=1;rounded=0;exitX=0.25;exitY=1;exitDx=0;exitDy=0;entryX=0.25;entryY=0;entryDx=0;entryDy=0;" edge="1" parent="1">
          <mxGeometry width="50" height="50" relative="1" as="geometry">
            <mxPoint x="499.5" y="420" as="sourcePoint" />
            <mxPoint x="499.5" y="480" as="targetPoint" />
          </mxGeometry>
        </mxCell>
        <mxCell id="k6DloEgijxmJY-Fi2cft-22" value="" style="endArrow=classic;html=1;rounded=0;exitX=0.25;exitY=1;exitDx=0;exitDy=0;entryX=0.25;entryY=0;entryDx=0;entryDy=0;" edge="1" parent="1">
          <mxGeometry width="50" height="50" relative="1" as="geometry">
            <mxPoint x="690" y="420" as="sourcePoint" />
            <mxPoint x="690" y="480" as="targetPoint" />
          </mxGeometry>
        </mxCell>
        <mxCell id="k6DloEgijxmJY-Fi2cft-23" value="BUILD SEMANTIC INDEX" style="rounded=1;whiteSpace=wrap;html=1;" vertex="1" parent="1">
          <mxGeometry x="350" y="610" width="120" height="60" as="geometry" />
        </mxCell>
        <mxCell id="k6DloEgijxmJY-Fi2cft-24" value="KNOWLEDGE BASE" style="rounded=1;whiteSpace=wrap;html=1;" vertex="1" parent="1">
          <mxGeometry x="350" y="710" width="120" height="60" as="geometry" />
        </mxCell>
        <mxCell id="k6DloEgijxmJY-Fi2cft-26" value="RANKED RESULTS" style="rounded=1;whiteSpace=wrap;html=1;" vertex="1" parent="1">
          <mxGeometry x="350" y="830" width="120" height="60" as="geometry" />
        </mxCell>
        <mxCell id="k6DloEgijxmJY-Fi2cft-27" value="LLM GENERATIVE&lt;br&gt;&amp;nbsp;AI" style="rounded=1;whiteSpace=wrap;html=1;" vertex="1" parent="1">
          <mxGeometry x="555" y="830" width="120" height="60" as="geometry" />
        </mxCell>
        <mxCell id="k6DloEgijxmJY-Fi2cft-28" value="USER" style="shape=umlActor;verticalLabelPosition=bottom;verticalAlign=top;html=1;" vertex="1" parent="1">
          <mxGeometry x="580" y="1000" width="80" height="80" as="geometry" />
        </mxCell>
        <mxCell id="k6DloEgijxmJY-Fi2cft-29" value="QUESTION" style="rounded=1;whiteSpace=wrap;html=1;" vertex="1" parent="1">
          <mxGeometry x="350" y="1020" width="120" height="60" as="geometry" />
        </mxCell>
        <mxCell id="k6DloEgijxmJY-Fi2cft-30" value="QUESTION EMBEDDINGS" style="rounded=1;whiteSpace=wrap;html=1;" vertex="1" parent="1">
          <mxGeometry x="80" y="1020" width="120" height="60" as="geometry" />
        </mxCell>
        <mxCell id="k6DloEgijxmJY-Fi2cft-31" value="SEMANTIC SEARCH" style="rounded=1;whiteSpace=wrap;html=1;" vertex="1" parent="1">
          <mxGeometry x="80" y="840" width="120" height="60" as="geometry" />
        </mxCell>
        <mxCell id="k6DloEgijxmJY-Fi2cft-32" value="" style="endArrow=classic;html=1;rounded=0;exitX=0.25;exitY=1;exitDx=0;exitDy=0;entryX=0.5;entryY=0;entryDx=0;entryDy=0;" edge="1" parent="1" target="k6DloEgijxmJY-Fi2cft-23">
          <mxGeometry width="50" height="50" relative="1" as="geometry">
            <mxPoint x="99.5" y="540" as="sourcePoint" />
            <mxPoint x="99.5" y="600" as="targetPoint" />
          </mxGeometry>
        </mxCell>
        <mxCell id="k6DloEgijxmJY-Fi2cft-33" value="" style="endArrow=classic;html=1;rounded=0;exitX=0.25;exitY=1;exitDx=0;exitDy=0;" edge="1" parent="1">
          <mxGeometry width="50" height="50" relative="1" as="geometry">
            <mxPoint x="299.5" y="540" as="sourcePoint" />
            <mxPoint x="410" y="610" as="targetPoint" />
          </mxGeometry>
        </mxCell>
        <mxCell id="k6DloEgijxmJY-Fi2cft-34" value="" style="endArrow=classic;html=1;rounded=0;exitX=0.25;exitY=1;exitDx=0;exitDy=0;" edge="1" parent="1">
          <mxGeometry width="50" height="50" relative="1" as="geometry">
            <mxPoint x="499.5" y="540" as="sourcePoint" />
            <mxPoint x="400" y="610" as="targetPoint" />
          </mxGeometry>
        </mxCell>
        <mxCell id="k6DloEgijxmJY-Fi2cft-35" value="" style="endArrow=classic;html=1;rounded=0;exitX=0.25;exitY=1;exitDx=0;exitDy=0;" edge="1" parent="1">
          <mxGeometry width="50" height="50" relative="1" as="geometry">
            <mxPoint x="690" y="540" as="sourcePoint" />
            <mxPoint x="400" y="610" as="targetPoint" />
          </mxGeometry>
        </mxCell>
        <mxCell id="k6DloEgijxmJY-Fi2cft-36" value="" style="endArrow=classic;html=1;rounded=0;exitX=0.25;exitY=1;exitDx=0;exitDy=0;" edge="1" parent="1">
          <mxGeometry width="50" height="50" relative="1" as="geometry">
            <mxPoint x="410" y="670" as="sourcePoint" />
            <mxPoint x="410" y="710" as="targetPoint" />
          </mxGeometry>
        </mxCell>
        <mxCell id="k6DloEgijxmJY-Fi2cft-37" value="" style="endArrow=classic;html=1;rounded=0;exitX=0.25;exitY=1;exitDx=0;exitDy=0;entryX=0.25;entryY=0;entryDx=0;entryDy=0;" edge="1" parent="1">
          <mxGeometry width="50" height="50" relative="1" as="geometry">
            <mxPoint x="409.5" y="770" as="sourcePoint" />
            <mxPoint x="409.5" y="830" as="targetPoint" />
          </mxGeometry>
        </mxCell>
        <mxCell id="k6DloEgijxmJY-Fi2cft-38" value="" style="endArrow=classic;html=1;rounded=0;exitX=0.642;exitY=1.033;exitDx=0;exitDy=0;entryX=0.5;entryY=0;entryDx=0;entryDy=0;entryPerimeter=0;exitPerimeter=0;" edge="1" parent="1">
          <mxGeometry width="50" height="50" relative="1" as="geometry">
            <mxPoint x="622.04" y="891.98" as="sourcePoint" />
            <mxPoint x="620" y="1000" as="targetPoint" />
          </mxGeometry>
        </mxCell>
        <mxCell id="k6DloEgijxmJY-Fi2cft-39" value="" style="endArrow=classic;html=1;rounded=0;exitX=0.25;exitY=1;exitDx=0;exitDy=0;entryX=0;entryY=0.5;entryDx=0;entryDy=0;" edge="1" parent="1" target="k6DloEgijxmJY-Fi2cft-27">
          <mxGeometry width="50" height="50" relative="1" as="geometry">
            <mxPoint x="474" y="860" as="sourcePoint" />
            <mxPoint x="534" y="910" as="targetPoint" />
          </mxGeometry>
        </mxCell>
        <mxCell id="k6DloEgijxmJY-Fi2cft-40" value="" style="endArrow=classic;html=1;rounded=0;exitX=0.25;exitY=1;exitDx=0;exitDy=0;entryX=0;entryY=0.5;entryDx=0;entryDy=0;" edge="1" parent="1" target="k6DloEgijxmJY-Fi2cft-24">
          <mxGeometry width="50" height="50" relative="1" as="geometry">
            <mxPoint x="140" y="840" as="sourcePoint" />
            <mxPoint x="221" y="840" as="targetPoint" />
          </mxGeometry>
        </mxCell>
        <mxCell id="k6DloEgijxmJY-Fi2cft-41" value="" style="endArrow=classic;html=1;rounded=0;exitX=0.467;exitY=0.65;exitDx=0;exitDy=0;entryX=1;entryY=0.5;entryDx=0;entryDy=0;exitPerimeter=0;" edge="1" parent="1" source="k6DloEgijxmJY-Fi2cft-28" target="k6DloEgijxmJY-Fi2cft-29">
          <mxGeometry width="50" height="50" relative="1" as="geometry">
            <mxPoint x="494" y="880" as="sourcePoint" />
            <mxPoint x="575" y="880" as="targetPoint" />
          </mxGeometry>
        </mxCell>
        <mxCell id="k6DloEgijxmJY-Fi2cft-42" value="" style="endArrow=classic;html=1;rounded=0;exitX=0.467;exitY=0.65;exitDx=0;exitDy=0;entryX=1;entryY=0.5;entryDx=0;entryDy=0;exitPerimeter=0;" edge="1" parent="1">
          <mxGeometry width="50" height="50" relative="1" as="geometry">
            <mxPoint x="344" y="1049.5" as="sourcePoint" />
            <mxPoint x="200" y="1050.5" as="targetPoint" />
          </mxGeometry>
        </mxCell>
        <mxCell id="k6DloEgijxmJY-Fi2cft-43" value="" style="endArrow=classic;html=1;rounded=0;exitX=0.4;exitY=-0.017;exitDx=0;exitDy=0;entryX=0.408;entryY=1.067;entryDx=0;entryDy=0;entryPerimeter=0;exitPerimeter=0;" edge="1" parent="1" source="k6DloEgijxmJY-Fi2cft-30" target="k6DloEgijxmJY-Fi2cft-31">
          <mxGeometry width="50" height="50" relative="1" as="geometry">
            <mxPoint x="110" y="1020" as="sourcePoint" />
            <mxPoint x="320" y="920" as="targetPoint" />
          </mxGeometry>
        </mxCell>
        <mxCell id="k6DloEgijxmJY-Fi2cft-44" value="" style="endArrow=classic;html=1;rounded=0;entryX=0.5;entryY=1;entryDx=0;entryDy=0;exitX=0.438;exitY=0;exitDx=0;exitDy=0;exitPerimeter=0;" edge="1" parent="1">
          <mxGeometry width="50" height="50" relative="1" as="geometry">
            <mxPoint x="610.04" y="1000" as="sourcePoint" />
            <mxPoint x="610" y="890" as="targetPoint" />
          </mxGeometry>
        </mxCell>
      </root>
    </mxGraphModel>
  </diagram>
</mxfile>
